<?xml version="1.0" encoding="UTF-8" standalone="no"?>
<!DOCTYPE svg PUBLIC "-//W3C//DTD SVG 1.1//EN" "http://www.w3.org/Graphics/SVG/1.1/DTD/svg11.dtd">
<svg xmlns="http://www.w3.org/2000/svg" version="1.1" viewBox="0 0 500 500" width="500.0pt" height="500.0pt">
<path d="M 0.00 0.00 L 500.00 0.00 L 500.00 500.00 L 0.00 500.00 L 0.00 0.00 Z" fill="#ffffff" />
<path d="M 299.72 197.27 C 302.08 201.19 299.93 206.30 295.81 207.93 C 293.30 209.00 291.11 207.70 288.67 207.05 C 285.28 210.71 281.93 214.42 278.49 218.04 C 285.69 217.98 292.88 218.06 300.08 217.98 C 301.36 215.50 302.06 213.07 304.85 211.91 C 308.50 210.23 312.67 212.18 314.26 215.74 C 316.82 220.44 312.36 226.76 307.00 225.97 C 303.72 225.97 302.48 223.62 300.45 221.51 C 292.03 221.48 283.61 221.48 275.19 221.51 C 271.76 225.25 268.37 229.03 264.93 232.75 C 270.69 232.71 276.44 232.74 282.20 232.71 C 283.39 230.76 284.36 228.55 286.47 227.45 C 290.37 225.67 294.89 227.45 296.30 231.53 C 298.04 236.30 294.07 241.69 288.98 241.21 C 286.14 241.18 284.31 238.54 282.54 236.69 C 275.57 236.61 268.60 236.70 261.63 236.62 C 256.86 242.23 253.64 248.60 249.78 254.80 C 247.90 257.83 245.42 260.64 241.80 261.47 C 237.92 262.42 233.63 260.96 231.31 257.67 C 228.04 252.75 226.80 245.64 222.80 241.22 C 219.63 237.80 214.36 237.65 211.23 241.22 C 205.74 247.14 202.49 255.20 194.23 258.25 C 187.45 260.27 179.63 259.01 172.60 259.30 C 172.60 258.00 172.61 256.70 172.62 255.40 C 178.26 255.15 183.92 255.53 189.55 255.22 C 194.47 254.74 198.06 251.76 201.00 248.02 C 204.32 244.02 207.09 238.19 211.82 235.78 C 216.42 233.33 222.24 234.50 225.74 238.27 C 230.05 242.75 231.30 250.45 234.68 255.34 C 236.26 257.77 240.19 257.77 242.56 256.65 C 245.16 255.16 246.86 251.86 248.37 249.36 C 252.09 242.82 255.93 236.59 261.03 231.02 C 269.38 221.84 277.83 212.76 286.36 203.75 C 286.50 201.57 286.05 198.46 287.61 196.74 C 290.33 192.63 297.42 192.82 299.72 197.27 Z" fill="#015393" />
<path d="M 291.33 198.29 C 293.91 195.92 297.63 198.64 296.76 201.80 C 296.15 204.74 291.47 205.44 290.42 202.52 C 289.30 200.87 290.15 199.57 291.33 198.29 Z" fill="#ffffff" />
<path d="M 193.80 206.88 C 201.17 206.44 208.61 206.85 216.00 206.71 C 235.83 206.86 255.69 206.44 275.51 206.93 C 270.10 213.92 263.98 220.64 257.79 226.96 C 242.66 226.89 227.52 226.93 212.39 226.94 C 208.65 231.01 204.77 234.95 201.20 239.16 C 198.63 242.18 196.45 245.96 193.24 248.27 C 190.87 250.10 187.52 250.55 184.67 251.18 C 185.44 242.95 187.88 234.94 189.34 226.78 C 190.94 220.21 191.74 213.30 193.80 206.88 Z" fill="#015393" />
<path d="M 306.38 215.35 C 310.54 213.88 312.81 219.45 309.53 221.57 C 307.02 223.41 303.66 220.91 303.91 218.06 C 304.44 217.05 305.24 215.72 306.38 215.35 Z" fill="#ffffff" />
<path d="M 287.26 231.27 C 290.39 228.75 294.11 232.15 292.60 235.57 C 291.85 237.82 289.00 237.50 287.25 236.73 C 285.97 234.87 285.74 233.08 287.26 231.27 Z" fill="#ffffff" />
<path d="M 341.00 253.27 C 338.08 256.45 334.98 259.37 331.64 262.12 C 328.93 259.78 326.39 257.49 323.12 255.92 C 315.59 252.24 305.65 252.70 299.02 258.09 C 293.21 262.63 290.20 269.71 289.93 276.98 C 290.10 283.73 292.91 290.51 298.20 294.84 C 303.98 299.96 312.59 300.83 319.80 298.84 C 324.26 297.63 327.71 295.00 331.22 292.14 C 334.19 294.95 337.69 297.55 340.10 300.87 C 337.24 305.31 332.68 308.77 327.93 310.98 C 313.56 317.61 294.86 313.51 284.65 301.39 C 276.25 291.64 274.18 277.08 278.00 265.01 C 281.66 253.68 291.71 244.22 303.21 241.20 C 316.44 237.26 333.12 241.33 341.00 253.27 Z" fill="#015393" />
<path d="M 222.87 251.10 C 226.67 256.66 227.79 263.93 231.41 269.61 C 234.45 274.02 240.71 273.66 244.51 270.48 C 249.53 266.18 251.46 259.35 257.37 255.36 C 262.77 251.57 269.45 252.79 275.67 252.70 C 275.24 253.73 275.65 256.88 273.89 256.56 C 269.30 257.07 263.58 255.83 259.74 258.76 C 253.74 262.94 251.90 270.57 245.65 274.68 C 240.33 278.31 232.55 278.01 228.55 272.55 C 224.72 266.97 223.40 259.75 219.99 253.92 C 218.46 251.44 214.82 250.84 212.51 252.57 C 210.85 253.83 209.56 255.70 208.30 257.35 C 206.08 260.46 203.73 263.10 202.94 266.96 C 201.47 273.77 200.12 280.62 198.79 287.45 C 220.39 287.53 241.99 287.40 263.59 287.51 C 262.79 291.99 261.68 296.27 259.06 300.06 C 255.94 304.86 250.95 308.48 245.01 308.22 C 220.61 308.14 196.20 308.26 171.79 308.15 C 174.79 293.60 178.30 279.13 181.71 264.67 C 186.87 264.60 192.93 265.25 197.55 262.52 C 202.83 259.50 205.11 254.27 209.10 250.10 C 212.80 246.31 219.81 246.68 222.87 251.10 Z" fill="#015393" />
<path d="M 313.81 259.21 C 313.90 261.60 313.84 263.96 313.67 266.35 C 310.40 264.91 310.68 260.66 313.81 259.21 Z" fill="#015393" />
<path d="M 301.78 263.75 C 303.10 264.89 304.37 266.09 305.64 267.29 C 305.37 268.07 305.09 268.85 304.82 269.63 C 303.38 268.45 301.93 267.28 300.52 266.07 C 300.93 265.29 301.35 264.51 301.78 263.75 Z" fill="#015393" />
<path d="M 324.10 263.93 C 324.53 264.52 324.94 265.13 325.33 265.78 C 324.11 267.18 322.74 268.38 321.37 269.62 C 320.83 269.01 320.29 268.39 319.75 267.78 C 321.18 266.48 322.59 265.14 324.10 263.93 Z" fill="#015393" />
<path d="M 309.98 267.93 C 315.87 266.18 322.08 270.78 321.96 276.94 C 321.68 280.18 319.69 282.05 317.62 284.30 C 317.55 285.80 317.49 287.29 317.43 288.79 C 314.26 288.82 311.10 288.81 307.93 288.81 C 307.86 287.41 307.80 286.00 307.73 284.59 C 306.00 282.59 303.62 280.76 303.36 277.95 C 302.59 273.38 305.57 269.09 309.98 267.93 Z" fill="#015393" />
<path d="M 315.23 270.74 C 318.82 272.18 320.87 276.84 317.97 279.97 C 315.91 282.30 315.04 283.44 314.69 286.66 C 313.20 286.62 311.70 286.58 310.21 286.54 C 310.08 285.39 309.95 284.24 309.82 283.09 C 307.83 280.98 305.50 279.26 305.80 276.01 C 306.32 271.69 311.25 268.63 315.23 270.74 Z" fill="#ffffff" />
<path d="M 301.50 275.29 C 300.22 277.81 300.03 277.75 297.24 278.07 C 296.68 277.29 296.13 276.51 295.59 275.71 C 297.56 275.48 299.52 275.35 301.50 275.29 Z" fill="#015393" />
<path d="M 328.97 275.02 C 329.16 275.77 329.36 276.53 329.55 277.28 C 326.97 277.86 325.61 278.07 323.20 276.62 C 325.00 275.48 326.90 275.26 328.97 275.02 Z" fill="#015393" />
<path d="M 316.80 290.99 C 314.93 294.00 311.97 292.67 308.95 292.95 L 309.51 290.86 C 311.94 290.73 314.37 290.81 316.80 290.99 Z" fill="#015393" />
</svg>